<svg width="25" height="25" xmlns="http://www.w3.org/2000/svg"><path d="M10.159 17.774c-3.347-.004-6.274-2.286-7.138-5.563-.864-3.277.55-6.735 3.447-8.432a7.324 7.324 0 0 1 8.927 1.187 7.37 7.37 0 0 1 2.173 5.308 7.587 7.587 0 0 1-2.163 5.308 7.227 7.227 0 0 1-5.246 2.192zm14.088 4.829l-6.048-6.13a10.39 10.39 0 0 0 .996-10.766c-1.708-3.49-5.217-5.7-9.06-5.707C6.037 0 2.341 2.501.772 6.339c-1.57 3.837-.705 8.256 2.19 11.195a10.01 10.01 0 0 0 13.281.925l6.081 6.096c.26.268.616.417.987.41.367-.002.718-.15.98-.41a1.411 1.411 0 0 0-.034-1.952h-.01z" fill-rule="nonzero" fill="#FFF"/></svg>